<svg width="44" height="32" viewBox="0 0 44 32" fill="none" xmlns="http://www.w3.org/2000/svg">
<path d="M22.2793 0.0100107C23.446 0.0100107 24.6032 0.0291362 25.7698 0.000447107C26.1619 -0.00911594 26.3819 0.13433 26.5636 0.469037C27.4051 1.97044 28.2754 3.45271 29.1169 4.95411C29.3177 5.3175 29.4134 5.3175 29.6238 4.95411C30.4749 3.44314 31.3547 1.94175 32.2058 0.430784C32.3779 0.124767 32.5787 0.0100107 32.923 0.0100107C35.2373 0.0195738 37.542 0.0291368 39.8562 0.0100107C40.2292 0.0100107 40.4396 0.143893 40.6117 0.459474C41.6541 2.32427 42.706 4.1795 43.7675 6.03473C43.9109 6.29293 43.9014 6.48419 43.7579 6.73283C40.8986 11.7056 38.0488 16.6784 35.199 21.6608C33.3725 24.8357 31.5555 28.0202 29.7289 31.1951C29.4229 31.7402 29.3273 31.7402 29.0213 31.2142C24.345 23.057 19.6782 14.8997 14.9923 6.75196C14.7723 6.35987 14.7819 6.08255 15.0019 5.70959C16.0155 3.97867 17.0101 2.2382 17.9951 0.488163C18.1959 0.13433 18.4254 0.00044769 18.8271 0.0100107C19.9842 0.0195738 21.1318 0.0100107 22.2793 0.0100107Z" fill="#EFEFEF"/>
<path d="M13.73 31.9984C9.40754 31.9984 5.0946 31.9984 0.772105 31.9984C0.628659 31.9984 0.485213 31.9888 0.341768 31.9984C-0.0216282 32.0175 -0.0790065 31.8645 0.0931283 31.5681C0.504339 30.8604 0.896424 30.1623 1.30764 29.4546C5.30499 22.4736 9.31191 15.4926 13.3093 8.51156C13.4049 8.34898 13.4623 8.10035 13.6631 8.09078C13.9117 8.07166 13.9595 8.34899 14.0552 8.52112C18.4064 16.1046 22.7576 23.6977 27.1087 31.2812C27.5199 31.9984 27.5199 31.9984 26.6784 31.9984C22.3655 31.9984 18.043 31.9984 13.73 31.9984Z" fill="#EFEFEF"/>
</svg>
