<svg width="68" height="68" viewBox="0 0 68 68" fill="none" xmlns="http://www.w3.org/2000/svg">
<rect width="67.8705" height="68" rx="4" fill="black"/>
<path d="M34.2793 18.01C35.446 18.01 36.6032 18.0291 37.7698 18.0004C38.1619 17.9909 38.3819 18.1343 38.5636 18.469C39.4051 19.9704 40.2754 21.4527 41.1169 22.9541C41.3177 23.3175 41.4134 23.3175 41.6238 22.9541C42.4749 21.4431 43.3547 19.9417 44.2058 18.4308C44.3779 18.1248 44.5787 18.01 44.923 18.01C47.2373 18.0196 49.542 18.0291 51.8562 18.01C52.2292 18.01 52.4396 18.1439 52.6117 18.4595C53.6541 20.3243 54.706 22.1795 55.7675 24.0347C55.9109 24.2929 55.9014 24.4842 55.7579 24.7328C52.8986 29.7056 50.0488 34.6784 47.199 39.6608C45.3725 42.8357 43.5555 46.0202 41.7289 49.1951C41.4229 49.7402 41.3273 49.7402 41.0213 49.2142C36.345 41.057 31.6782 32.8997 26.9923 24.752C26.7723 24.3599 26.7819 24.0825 27.0019 23.7096C28.0155 21.9787 29.0101 20.2382 29.9951 18.4882C30.1959 18.1343 30.4254 18.0004 30.8271 18.01C31.9842 18.0196 33.1318 18.01 34.2793 18.01Z" fill="#EFEFEF"/>
<path d="M25.73 49.9984C21.4075 49.9984 17.0946 49.9984 12.7721 49.9984C12.6287 49.9984 12.4852 49.9888 12.3418 49.9984C11.9784 50.0175 11.921 49.8645 12.0931 49.5681C12.5043 48.8604 12.8964 48.1623 13.3076 47.4546C17.305 40.4736 21.3119 33.4926 25.3093 26.5116C25.4049 26.349 25.4623 26.1003 25.6631 26.0908C25.9117 26.0717 25.9595 26.349 26.0552 26.5211C30.4064 34.1046 34.7576 41.6977 39.1087 49.2812C39.5199 49.9984 39.5199 49.9984 38.6784 49.9984C34.3655 49.9984 30.043 49.9984 25.73 49.9984Z" fill="#EFEFEF"/>
</svg>
