<svg width="166" height="22" viewBox="0 0 166 22" fill="none" xmlns="http://www.w3.org/2000/svg">
<path d="M4.712 22C2.528 18.952 0.92 15.4 0.92 10.744C0.92 6.376 2.672 2.8 4.712 0.183999H6.512C4.76 2.992 3.488 6.568 3.488 10.744C3.488 15.184 4.568 18.616 6.512 22H4.712ZM15.1254 19.384C13.2054 19.384 11.7894 18.76 10.7574 17.752C8.98138 16.12 8.38138 13.792 8.38138 10.36C8.38138 7.696 8.95738 5.464 10.0854 3.904C11.2134 2.368 12.8694 1.504 15.0774 1.504C18.5094 1.504 20.2134 3.784 20.5254 5.896H18.2454C18.0774 4.72 17.0454 3.4 15.1254 3.4C11.9094 3.4 10.6854 5.992 10.5654 10.432H10.6134C11.7414 8.56 13.2534 7.744 15.3174 7.744C18.4614 7.744 20.9814 10.312 21.0054 13.504C21.0294 16.744 18.4134 19.384 15.1254 19.384ZM15.0774 17.536C17.2374 17.536 18.8454 15.928 18.8454 13.576C18.8454 11.224 17.1894 9.616 15.0054 9.616C12.6294 9.616 10.9974 11.176 10.9974 13.552C10.9974 15.904 12.7734 17.536 15.0774 17.536ZM29.6448 19.384C27.7248 19.384 26.0448 18.856 24.8208 17.848C23.5728 16.84 22.8288 15.352 22.8048 13.456H25.0608C25.1328 15.976 26.8128 17.488 29.5728 17.488C31.8528 17.488 33.4608 16.336 33.4608 14.008C33.4608 11.92 31.9008 10.816 29.1408 10.816H28.0608V9.04H29.1168C31.6608 9.04 32.9808 7.96 32.9808 6.184C32.9808 4.384 31.3968 3.304 29.4048 3.304C27.0048 3.304 25.6128 4.864 25.5888 7H23.3568C23.3808 3.784 25.6608 1.504 29.4768 1.504C32.6928 1.504 35.2368 3.256 35.2368 6.208C35.2368 8.128 34.0848 9.232 32.4048 9.784V9.856C34.7808 10.48 35.8368 11.992 35.8368 14.2C35.8368 17.536 33.1248 19.384 29.6448 19.384ZM41.8436 19V6.688H37.8836V5.152C40.0436 5.104 42.0596 4.288 42.3716 1.792H44.1716V19H41.8436ZM46.8969 22C48.8649 18.616 49.9689 15.184 49.9689 10.744C49.9689 6.568 48.6969 2.992 46.8969 0.183999H48.7449C50.7609 2.8 52.4889 6.376 52.4889 10.744C52.4889 15.4 50.8809 18.952 48.7449 22H46.8969ZM63.9733 19C64.3333 13 67.4773 7.024 71.3413 3.904V3.856C71.3413 3.856 69.9973 3.952 68.1973 3.952H61.5493V1.912H73.5733V3.76C70.1173 6.832 66.7573 12.304 66.4213 19H63.9733ZM81.7582 19.384C79.8382 19.384 78.4222 18.76 77.3902 17.752C75.6142 16.12 75.0142 13.792 75.0142 10.36C75.0142 7.696 75.5902 5.464 76.7182 3.904C77.8462 2.368 79.5022 1.504 81.7102 1.504C85.1422 1.504 86.8462 3.784 87.1582 5.896H84.8782C84.7102 4.72 83.6782 3.4 81.7582 3.4C78.5422 3.4 77.3182 5.992 77.1982 10.432H77.2462C78.3742 8.56 79.8862 7.744 81.9502 7.744C85.0942 7.744 87.6142 10.312 87.6382 13.504C87.6622 16.744 85.0462 19.384 81.7582 19.384ZM81.7102 17.536C83.8702 17.536 85.4782 15.928 85.4782 13.576C85.4782 11.224 83.8222 9.616 81.6382 9.616C79.2622 9.616 77.6302 11.176 77.6302 13.552C77.6302 15.904 79.4062 17.536 81.7102 17.536ZM96.7576 19.384C92.5336 19.384 90.0376 15.88 90.0376 10.432C90.0376 4.912 92.7016 1.504 96.7816 1.504C100.886 1.504 103.502 4.864 103.502 10.432C103.502 15.88 101.054 19.384 96.7576 19.384ZM96.7816 17.416C99.7576 17.416 101.102 14.752 101.102 10.432C101.102 6.184 99.6856 3.448 96.7816 3.448C93.8536 3.448 92.4136 6.136 92.4136 10.432C92.4136 14.68 93.8536 17.416 96.7816 17.416ZM105.925 13.168V11.152H112.597V13.168H105.925ZM116.703 19V6.688H112.743V5.152C114.903 5.104 116.919 4.288 117.231 1.792H119.031V19H116.703ZM130.444 19V14.848H122.164V12.784L130.804 1.72H132.7V13.048H135.484V14.848H132.7V19H130.444ZM124.036 13.144C124.036 13.144 125.596 13.048 126.58 13.048H130.444V7.24C130.444 6.328 130.564 4.72 130.564 4.72H130.516C130.516 4.72 129.724 6.064 129.028 6.952L125.86 10.984C125.188 11.824 124.036 13.096 124.036 13.096V13.144ZM143.621 19.384C141.701 19.384 140.021 18.856 138.797 17.848C137.549 16.84 136.805 15.352 136.781 13.456H139.037C139.109 15.976 140.789 17.488 143.549 17.488C145.829 17.488 147.437 16.336 147.437 14.008C147.437 11.92 145.877 10.816 143.117 10.816H142.037V9.04H143.093C145.637 9.04 146.957 7.96 146.957 6.184C146.957 4.384 145.373 3.304 143.381 3.304C140.981 3.304 139.589 4.864 139.565 7H137.333C137.357 3.784 139.637 1.504 143.453 1.504C146.669 1.504 149.213 3.256 149.213 6.208C149.213 8.128 148.061 9.232 146.381 9.784V9.856C148.757 10.48 149.813 11.992 149.813 14.2C149.813 17.536 147.101 19.384 143.621 19.384ZM158.82 19.384C154.596 19.384 152.1 15.88 152.1 10.432C152.1 4.912 154.764 1.504 158.844 1.504C162.948 1.504 165.564 4.864 165.564 10.432C165.564 15.88 163.116 19.384 158.82 19.384ZM158.844 17.416C161.82 17.416 163.164 14.752 163.164 10.432C163.164 6.184 161.748 3.448 158.844 3.448C155.916 3.448 154.476 6.136 154.476 10.432C154.476 14.68 155.916 17.416 158.844 17.416Z" fill="#878787"/>
</svg>
