<svg width="274" height="39" viewBox="0 0 274 39" fill="none" xmlns="http://www.w3.org/2000/svg">
<path d="M3.744 14.1455V4.91151H0.774V3.75951C2.394 3.72351 3.906 3.11151 4.14 1.23951H5.49V14.1455H3.744ZM19.0472 14.4155C15.2312 14.4155 12.7472 11.4995 12.7472 7.44951C12.7472 3.50751 15.1232 0.465507 19.1012 0.465507C20.6672 0.465507 21.9272 0.915508 22.8272 1.65351C23.7812 2.42751 24.3572 3.52551 24.5372 4.80351H22.7012C22.3952 3.16551 21.1172 2.06751 19.0652 2.06751C16.2212 2.06751 14.6192 4.37151 14.6192 7.44951C14.6192 10.6535 16.3832 12.8135 19.0832 12.8135C21.5132 12.8135 22.6832 11.1755 22.8452 9.26751H24.6812C24.6632 10.5995 24.0332 12.0755 23.0792 12.9935C22.1432 13.9295 20.7752 14.4155 19.0472 14.4155ZM29.5027 14.3435C27.6667 14.3435 26.2267 13.4435 26.2267 11.5895C26.2267 9.33951 27.8827 8.85351 30.3847 8.54751C31.8067 8.38551 32.7247 8.15151 32.7247 7.16151C32.7247 6.11751 31.9867 5.46951 30.6547 5.46951C29.1247 5.46951 28.3867 6.18951 28.3327 7.34151H26.7127C26.7847 5.70351 28.0267 4.24551 30.6367 4.24551C31.5547 4.24551 32.3647 4.40751 32.9767 4.76751C33.7867 5.25351 34.2727 6.09951 34.2727 7.39551V11.9135C34.2727 12.6875 34.4527 13.1015 35.2987 12.9215H35.3707V14.0915C35.1367 14.1635 34.8667 14.2355 34.4707 14.2355C33.4447 14.2355 32.9407 13.7495 32.7607 12.7235H32.7427C32.1307 13.5695 31.1407 14.3435 29.5027 14.3435ZM29.9167 13.1195C31.8427 13.1195 32.7427 11.6975 32.7427 10.5815V8.99751C32.2567 9.30351 31.4107 9.53751 30.6187 9.68151C29.0347 9.95151 27.9907 10.2395 27.9907 11.5715C27.9907 12.8135 28.9447 13.1195 29.9167 13.1195ZM38.3861 4.47951V5.84751H38.4401C39.1421 4.87551 40.0961 4.24551 41.5001 4.24551C43.5161 4.24551 44.7581 5.37951 44.7581 7.39551V14.1455H43.1021V7.59351C43.1021 6.35151 42.2921 5.64951 40.9781 5.64951C39.4841 5.64951 38.4041 6.71151 38.4041 8.25951V14.1455H36.7301V4.47951H38.3861ZM49.8933 14.3435C48.0573 14.3435 46.6173 13.4435 46.6173 11.5895C46.6173 9.33951 48.2733 8.85351 50.7753 8.54751C52.1973 8.38551 53.1153 8.15151 53.1153 7.16151C53.1153 6.11751 52.3773 5.46951 51.0453 5.46951C49.5153 5.46951 48.7773 6.18951 48.7233 7.34151H47.1033C47.1753 5.70351 48.4173 4.24551 51.0273 4.24551C51.9453 4.24551 52.7553 4.40751 53.3673 4.76751C54.1773 5.25351 54.6633 6.09951 54.6633 7.39551V11.9135C54.6633 12.6875 54.8433 13.1015 55.6893 12.9215H55.7613V14.0915C55.5273 14.1635 55.2573 14.2355 54.8613 14.2355C53.8353 14.2355 53.3313 13.7495 53.1513 12.7235H53.1333C52.5213 13.5695 51.5313 14.3435 49.8933 14.3435ZM50.3073 13.1195C52.2333 13.1195 53.1333 11.6975 53.1333 10.5815V8.99751C52.6473 9.30351 51.8013 9.53751 51.0093 9.68151C49.4253 9.95151 48.3813 10.2395 48.3813 11.5715C48.3813 12.8135 49.3353 13.1195 50.3073 13.1195ZM58.7768 4.47951V6.22551H58.8308C59.4248 5.10951 60.4148 4.35351 61.6928 4.35351C61.9628 4.35351 62.1248 4.38951 62.3048 4.46151V6.04551H62.2508C62.0168 5.97351 61.8548 5.95551 61.5668 5.95551C60.0728 5.95551 58.7948 7.07151 58.7948 8.88951V14.1455H57.1208V4.47951H58.7768ZM65.1291 17.5115C64.5891 17.5115 63.9771 17.4215 63.7071 17.3135V15.8735H63.7791C63.9591 15.9815 64.3731 16.0535 64.7871 16.0535C65.4531 16.0535 65.8851 15.8015 66.2271 14.8835C66.2271 14.8475 66.6051 13.7675 66.5691 13.6595L62.8791 4.47951H64.6971L66.6951 9.84351C67.0911 10.9415 67.5051 12.4535 67.5051 12.4535H67.5411C67.5411 12.4535 67.9911 10.9235 68.3691 9.84351L70.2951 4.47951H72.0411L67.9371 15.0275C67.1451 17.0615 66.3711 17.5115 65.1291 17.5115ZM84.0863 14.4155C80.2703 14.4155 77.7863 11.4995 77.7863 7.44951C77.7863 3.50751 80.1623 0.465507 84.1403 0.465507C85.7063 0.465507 86.9663 0.915508 87.8663 1.65351C88.8203 2.42751 89.3963 3.52551 89.5763 4.80351H87.7403C87.4343 3.16551 86.1563 2.06751 84.1043 2.06751C81.2603 2.06751 79.6583 4.37151 79.6583 7.44951C79.6583 10.6535 81.4223 12.8135 84.1223 12.8135C86.5523 12.8135 87.7223 11.1755 87.8843 9.26751H89.7203C89.7023 10.5995 89.0723 12.0755 88.1183 12.9935C87.1823 13.9295 85.8143 14.4155 84.0863 14.4155ZM91.0678 5.77551V4.47951H92.5798V1.43751H94.2358V4.47951H96.2338V5.77551H94.2358V11.8775C94.2358 12.5795 94.6138 12.7775 95.2258 12.7775C95.5138 12.7775 95.8918 12.7055 96.0718 12.6515H96.1258V14.0555C95.6758 14.1635 95.2078 14.2175 94.7758 14.2175C93.4798 14.1995 92.5798 13.6775 92.5798 12.2555V5.77551H91.0678ZM102.988 14.1455V0.753507H104.824V6.38751H111.736V0.753507H113.59V14.1455H111.736V7.88151H104.824V14.1455H102.988ZM123.961 14.1455H122.305V12.7955H122.269C121.585 13.7495 120.739 14.3615 119.353 14.3615C117.355 14.3615 116.077 13.1555 116.077 11.1395V4.47951H117.751V11.0495C117.751 12.2735 118.525 12.9935 119.857 12.9935C121.333 12.9935 122.287 11.8595 122.287 10.3655V4.47951H123.961V14.1455ZM127.947 4.47951V5.84751H128.001C128.703 4.87551 129.657 4.24551 131.061 4.24551C133.077 4.24551 134.319 5.37951 134.319 7.39551V14.1455H132.663V7.59351C132.663 6.35151 131.853 5.64951 130.539 5.64951C129.045 5.64951 127.965 6.71151 127.965 8.25951V14.1455H126.291V4.47951H127.947ZM135.804 5.77551V4.47951H137.316V1.43751H138.972V4.47951H140.97V5.77551H138.972V11.8775C138.972 12.5795 139.35 12.7775 139.962 12.7775C140.25 12.7775 140.628 12.7055 140.808 12.6515H140.862V14.0555C140.412 14.1635 139.944 14.2175 139.512 14.2175C138.216 14.1995 137.316 13.6775 137.316 12.2555V5.77551H135.804ZM142.673 2.69751V0.753507H144.419V2.69751H142.673ZM142.709 14.1455V4.47951H144.383V14.1455H142.709ZM148.337 4.47951V5.84751H148.391C149.093 4.87551 150.047 4.24551 151.451 4.24551C153.467 4.24551 154.709 5.37951 154.709 7.39551V14.1455H153.053V7.59351C153.053 6.35151 152.243 5.64951 150.929 5.64951C149.435 5.64951 148.355 6.71151 148.355 8.25951V14.1455H146.681V4.47951H148.337ZM161.051 17.5295C158.513 17.5295 157.073 16.5215 156.893 14.8115H158.458C158.603 15.8195 159.575 16.2335 161.015 16.2335C162.743 16.2335 163.697 15.4595 163.697 13.8215V13.5515C163.697 12.9935 163.715 12.4715 163.733 12.1655H163.697C163.031 13.1195 162.185 13.7135 160.817 13.7135C158.351 13.7135 156.587 11.7875 156.587 8.97951C156.587 6.00951 158.458 4.24551 160.727 4.24551C162.113 4.24551 163.049 4.78551 163.661 5.75751H163.697V4.47951H165.353V13.7495C165.353 15.0275 164.921 15.9815 164.183 16.6115C163.427 17.2415 162.347 17.5295 161.051 17.5295ZM160.979 12.3455C163.085 12.3455 163.805 10.8695 163.805 8.90751C163.805 6.87351 162.887 5.63151 160.961 5.63151C159.197 5.63151 158.297 6.96351 158.297 8.99751C158.297 11.0495 159.233 12.3455 160.979 12.3455ZM167.076 5.77551V4.47951H168.588V1.43751H170.244V4.47951H172.242V5.77551H170.244V11.8775C170.244 12.5795 170.622 12.7775 171.234 12.7775C171.522 12.7775 171.9 12.7055 172.08 12.6515H172.134V14.0555C171.684 14.1635 171.216 14.2175 170.784 14.2175C169.488 14.1995 168.588 13.6775 168.588 12.2555V5.77551H167.076ZM178.104 14.4155C175.188 14.4155 173.37 12.1475 173.37 9.32151C173.37 6.51351 175.188 4.24551 178.104 4.24551C181.02 4.24551 182.802 6.51351 182.802 9.32151C182.802 12.1475 181.02 14.4155 178.104 14.4155ZM178.086 13.0475C180.066 13.0475 181.092 11.4095 181.092 9.32151C181.092 7.23351 180.066 5.57751 178.086 5.57751C176.106 5.57751 175.08 7.23351 175.08 9.32151C175.08 11.4095 176.106 13.0475 178.086 13.0475ZM186.236 4.47951V5.84751H186.29C186.992 4.87551 187.946 4.24551 189.35 4.24551C191.366 4.24551 192.608 5.37951 192.608 7.39551V14.1455H190.952V7.59351C190.952 6.35151 190.142 5.64951 188.828 5.64951C187.334 5.64951 186.254 6.71151 186.254 8.25951V14.1455H184.58V4.47951H186.236ZM199.878 14.1455V0.753507H201.804L207.294 9.14151C207.942 10.1315 208.788 11.8055 208.788 11.8055H208.842C208.842 11.8055 208.716 10.0595 208.716 8.94351V0.753507H210.444V14.1455H208.536L203.064 5.75751C202.416 4.74951 201.534 3.11151 201.534 3.11151H201.498C201.498 3.11151 201.606 4.85751 201.606 5.93751V14.1455H199.878ZM216.982 14.1455V8.52951L212.158 0.753507H214.21L216.622 4.78551C217.18 5.73951 217.936 7.28751 217.936 7.28751H217.972C217.972 7.28751 218.746 5.73951 219.304 4.78551L221.734 0.753507H223.696L218.818 8.61951V14.1455H216.982ZM232.558 14.1455V4.91151H229.588V3.75951C231.208 3.72351 232.72 3.11151 232.954 1.23951H234.304V14.1455H232.558ZM239.642 14.1455V4.91151H236.672V3.75951C238.292 3.72351 239.804 3.11151 240.038 1.23951H241.388V14.1455H239.642ZM245.376 14.1455C245.646 9.64551 248.004 5.16351 250.902 2.82351V2.78751C250.902 2.78751 249.894 2.85951 248.544 2.85951H243.558V1.32951H252.576V2.71551C249.984 5.01951 247.464 9.12351 247.212 14.1455H245.376ZM258.667 14.1455V11.0315H252.457V9.48351L258.937 1.18551H260.359V9.68151H262.447V11.0315H260.359V14.1455H258.667ZM253.861 9.75351C253.861 9.75351 255.031 9.68151 255.769 9.68151H258.667V5.32551C258.667 4.64151 258.757 3.43551 258.757 3.43551H258.721C258.721 3.43551 258.127 4.44351 257.605 5.10951L255.229 8.13351C254.725 8.76351 253.861 9.71751 253.861 9.71751V9.75351ZM268.55 14.4335C267.11 14.4335 265.85 14.0375 264.932 13.2815C263.996 12.5255 263.438 11.4095 263.42 9.98751H265.112C265.166 11.8775 266.426 13.0115 268.496 13.0115C270.206 13.0115 271.412 12.1475 271.412 10.4015C271.412 8.83551 270.242 8.00751 268.172 8.00751H267.362V6.67551H268.154C270.062 6.67551 271.052 5.86551 271.052 4.53351C271.052 3.18351 269.864 2.37351 268.37 2.37351C266.57 2.37351 265.526 3.54351 265.508 5.14551H263.834C263.852 2.73351 265.562 1.02351 268.424 1.02351C270.836 1.02351 272.744 2.33751 272.744 4.55151C272.744 5.99151 271.88 6.81951 270.62 7.23351V7.28751C272.402 7.75551 273.194 8.88951 273.194 10.5455C273.194 13.0475 271.16 14.4335 268.55 14.4335ZM1.116 24.6975V22.7535H2.862V24.6975H1.116ZM1.152 36.1455V26.4795H2.826V36.1455H1.152ZM6.78066 26.4795V27.8475H6.83466C7.53666 26.8755 8.49066 26.2455 9.89466 26.2455C11.9107 26.2455 13.1527 27.3795 13.1527 29.3955V36.1455H11.4967V29.5935C11.4967 28.3515 10.6867 27.6495 9.37266 27.6495C7.87866 27.6495 6.79866 28.7115 6.79866 30.2595V36.1455H5.12466V26.4795H6.78066ZM14.726 27.7935V26.4795H16.22V25.1475C16.22 24.2475 16.454 23.6175 16.904 23.2215C17.372 22.8255 18.092 22.6635 19.028 22.6635C19.28 22.6635 19.586 22.6815 19.892 22.6995V24.0855C18.308 23.9775 17.894 24.2295 17.894 25.2195V26.4795H19.874V27.7935H17.894V36.1455H16.22V27.7935H14.726ZM25.5613 36.4155C22.6453 36.4155 20.8273 34.1475 20.8273 31.3215C20.8273 28.5135 22.6453 26.2455 25.5613 26.2455C28.4773 26.2455 30.2593 28.5135 30.2593 31.3215C30.2593 34.1475 28.4773 36.4155 25.5613 36.4155ZM25.5433 35.0475C27.5233 35.0475 28.5493 33.4095 28.5493 31.3215C28.5493 29.2335 27.5233 27.5775 25.5433 27.5775C23.5633 27.5775 22.5373 29.2335 22.5373 31.3215C22.5373 33.4095 23.5633 35.0475 25.5433 35.0475ZM38.8005 34.4355C36.9645 34.4355 35.7945 33.0675 35.7945 31.0875C35.7945 28.4055 37.3965 26.6775 39.3945 26.6775C40.4565 26.6775 41.1765 27.1995 41.5365 27.9195H41.5725L41.6985 26.8395H43.2825L42.6885 31.7175C42.5805 32.6175 42.9045 33.1395 43.5885 33.1395C44.6325 33.1395 45.7665 32.2935 45.7665 29.7735C45.7665 25.8855 43.1565 24.0315 39.7725 24.0315C36.2625 24.0315 33.2205 26.5515 33.2205 30.8355C33.2205 34.3455 35.3805 36.9375 39.2865 36.9375C40.5645 36.9375 41.7345 36.7215 42.8505 36.2715L43.3005 37.3155C42.0045 37.9095 40.7445 38.1255 39.3585 38.1255C34.9305 38.1255 31.8345 35.2275 31.8345 30.8175C31.8345 25.6875 35.7945 22.8075 39.8085 22.8075C43.5345 22.8075 47.1165 25.1835 47.1165 29.7375C47.1165 32.7255 45.6225 34.3635 43.4985 34.3635C42.4005 34.3635 41.6085 33.8235 41.3385 32.9415H41.3205C40.7625 33.8775 39.8805 34.4355 38.8005 34.4355ZM39.0345 33.2115C40.5285 33.2115 41.3025 31.8255 41.3025 30.0075C41.3025 28.7115 40.6725 27.9015 39.5385 27.9015C38.0985 27.9015 37.4325 29.2875 37.4325 31.0515C37.4325 32.2935 37.9185 33.2115 39.0345 33.2115ZM52.9546 36.4335C50.3446 36.4335 48.6886 34.4535 48.6886 31.3395C48.6886 28.1535 50.5246 26.2455 52.9186 26.2455C54.2866 26.2455 55.3666 26.9295 55.9786 27.9555H56.0146C55.9786 27.5235 55.9606 26.8215 55.9606 26.1735V22.7535H57.6346V36.1455H55.9786V34.7595H55.9426C55.3306 35.8035 54.3046 36.4335 52.9546 36.4335ZM53.0806 35.0475C55.1506 35.0475 56.0506 33.4815 56.0506 31.3575C56.0506 29.1795 55.0246 27.6495 53.0806 27.6495C51.2986 27.6495 50.3986 29.2335 50.3986 31.3575C50.3986 33.4815 51.2986 35.0475 53.0806 35.0475ZM64.1273 36.4155C61.1572 36.4155 59.4113 34.1475 59.4113 31.3215C59.4113 28.5135 61.2653 26.2455 64.0373 26.2455C65.4773 26.2455 66.5933 26.8035 67.3493 27.7395C68.1413 28.6935 68.5373 30.0795 68.5373 31.7175H61.1213C61.2473 33.6075 62.2733 35.0475 64.1453 35.0475C65.4773 35.0475 66.3953 34.4175 66.7013 33.3915H68.3393C67.9073 35.1915 66.3593 36.4155 64.1273 36.4155ZM64.0373 27.5415C62.2913 27.5415 61.3733 28.8015 61.1572 30.5115H66.7553C66.6653 28.6575 65.7113 27.5415 64.0373 27.5415ZM70.3759 36.1455V22.7535H72.0499V36.1455H70.3759ZM73.806 27.7755V26.4795H75.318V23.4375H76.974V26.4795H78.972V27.7755H76.974V33.8775C76.974 34.5795 77.352 34.7775 77.964 34.7775C78.252 34.7775 78.63 34.7055 78.81 34.6515H78.864V36.0555C78.414 36.1635 77.946 36.2175 77.514 36.2175C76.218 36.1995 75.318 35.6775 75.318 34.2555V27.7755H73.806ZM83.5906 36.3435C81.7546 36.3435 80.3146 35.4435 80.3146 33.5895C80.3146 31.3395 81.9706 30.8535 84.4726 30.5475C85.8946 30.3855 86.8126 30.1515 86.8126 29.1615C86.8126 28.1175 86.0746 27.4695 84.7426 27.4695C83.2126 27.4695 82.4746 28.1895 82.4206 29.3415H80.8006C80.8726 27.7035 82.1146 26.2455 84.7246 26.2455C85.6426 26.2455 86.4526 26.4075 87.0646 26.7675C87.8746 27.2535 88.3606 28.0995 88.3606 29.3955V33.9135C88.3606 34.6875 88.5406 35.1015 89.3866 34.9215H89.4586V36.0915C89.2246 36.1635 88.9546 36.2355 88.5586 36.2355C87.5326 36.2355 87.0286 35.7495 86.8486 34.7235H86.8306C86.2186 35.5695 85.2286 36.3435 83.5906 36.3435ZM84.0046 35.1195C85.9306 35.1195 86.8306 33.6975 86.8306 32.5815V30.9975C86.3446 31.3035 85.4986 31.5375 84.7066 31.6815C83.1226 31.9515 82.0786 32.2395 82.0786 33.5715C82.0786 34.8135 83.0326 35.1195 84.0046 35.1195ZM92.474 26.4795V28.2255H92.528C93.122 27.1095 94.112 26.3535 95.39 26.3535C95.66 26.3535 95.822 26.3895 96.002 26.4615V28.0455H95.948C95.714 27.9735 95.552 27.9555 95.264 27.9555C93.77 27.9555 92.492 29.0715 92.492 30.8895V36.1455H90.818V26.4795H92.474ZM101.499 36.4155C98.5828 36.4155 96.7648 34.1475 96.7648 31.3215C96.7648 28.5135 98.5828 26.2455 101.499 26.2455C104.415 26.2455 106.197 28.5135 106.197 31.3215C106.197 34.1475 104.415 36.4155 101.499 36.4155ZM101.481 35.0475C103.461 35.0475 104.487 33.4095 104.487 31.3215C104.487 29.2335 103.461 27.5775 101.481 27.5775C99.5008 27.5775 98.4748 29.2335 98.4748 31.3215C98.4748 33.4095 99.5008 35.0475 101.481 35.0475ZM107.974 36.1455V26.4795H109.63V27.9195H109.684C110.278 26.8755 111.304 26.2455 112.546 26.2455C113.716 26.2455 114.652 26.8575 115.048 28.0455H115.084C115.768 26.8395 116.902 26.2455 118.072 26.2455C119.836 26.2455 121.06 27.3795 121.06 29.3955V36.1455H119.386V29.5395C119.386 28.3515 118.612 27.6495 117.64 27.6495C116.416 27.6495 115.354 28.7115 115.354 30.1875V36.1455H113.698V29.5395C113.698 28.3515 113.032 27.6495 112.042 27.6495C110.89 27.6495 109.648 28.7115 109.648 30.1875V36.1455H107.974ZM127.496 36.4155C124.526 36.4155 122.78 34.1475 122.78 31.3215C122.78 28.5135 124.634 26.2455 127.406 26.2455C128.846 26.2455 129.962 26.8035 130.718 27.7395C131.51 28.6935 131.906 30.0795 131.906 31.7175H124.49C124.616 33.6075 125.642 35.0475 127.514 35.0475C128.846 35.0475 129.764 34.4175 130.07 33.3915H131.708C131.276 35.1915 129.728 36.4155 127.496 36.4155ZM127.406 27.5415C125.66 27.5415 124.742 28.8015 124.526 30.5115H130.124C130.034 28.6575 129.08 27.5415 127.406 27.5415ZM137.903 36.4155C134.987 36.4155 133.169 34.1475 133.169 31.3215C133.169 28.5135 134.987 26.2455 137.903 26.2455C140.819 26.2455 142.601 28.5135 142.601 31.3215C142.601 34.1475 140.819 36.4155 137.903 36.4155ZM137.885 35.0475C139.865 35.0475 140.891 33.4095 140.891 31.3215C140.891 29.2335 139.865 27.5775 137.885 27.5775C135.905 27.5775 134.879 29.2335 134.879 31.3215C134.879 33.4095 135.905 35.0475 137.885 35.0475ZM143.742 36.1455V34.1655H145.686V36.1455H143.742ZM146.492 27.7755V26.4795H148.004V23.4375H149.66V26.4795H151.658V27.7755H149.66V33.8775C149.66 34.5795 150.038 34.7775 150.65 34.7775C150.938 34.7775 151.316 34.7055 151.496 34.6515H151.55V36.0555C151.1 36.1635 150.632 36.2175 150.2 36.2175C148.904 36.1995 148.004 35.6775 148.004 34.2555V27.7755H146.492ZM155.876 36.1455L152.51 26.4795H154.292L155.984 31.6995C156.398 32.9955 156.866 34.7775 156.866 34.7775H156.902C156.902 34.7775 157.316 32.9955 157.748 31.6995L159.476 26.4795H161.204L157.73 36.1455H155.876Z" fill="#878787"/>
</svg>
