<svg width="47" height="46" viewBox="0 0 47 46" fill="none" xmlns="http://www.w3.org/2000/svg">
<rect x="0.616699" y="0.383301" width="45.6167" height="45.6167" rx="3.35417" fill="#EFEFEF"/>
<g clip-path="url(#clip0_12_336)">
<path d="M23.4249 11.6411C27.1889 11.6411 27.6346 11.6576 29.1149 11.7236C30.4907 11.7842 31.2336 12.0153 31.7288 12.2079C32.3837 12.461 32.8569 12.7692 33.3467 13.259C33.842 13.7542 34.1446 14.222 34.3977 14.8768C34.5903 15.3721 34.8215 16.1205 34.882 17.4907C34.948 18.9765 34.9646 19.4222 34.9646 23.1807C34.9646 26.9447 34.948 27.3905 34.882 28.8708C34.8215 30.2465 34.5903 30.9894 34.3977 31.4847C34.1446 32.1395 33.8364 32.6128 33.3467 33.1025C32.8514 33.5978 32.3837 33.9004 31.7288 34.1536C31.2336 34.3462 30.4852 34.5773 29.1149 34.6378C27.6291 34.7039 27.1834 34.7204 23.4249 34.7204C19.6609 34.7204 19.2152 34.7039 17.7349 34.6378C16.3591 34.5773 15.6162 34.3462 15.121 34.1536C14.4661 33.9004 13.9929 33.5923 13.5031 33.1025C13.0079 32.6073 12.7052 32.1395 12.4521 31.4847C12.2595 30.9894 12.0283 30.241 11.9678 28.8708C11.9018 27.385 11.8853 26.9392 11.8853 23.1807C11.8853 19.4167 11.9018 18.971 11.9678 17.4907C12.0283 16.115 12.2595 15.3721 12.4521 14.8768C12.7052 14.222 13.0134 13.7487 13.5031 13.259C13.9984 12.7637 14.4661 12.461 15.121 12.2079C15.6162 12.0153 16.3646 11.7842 17.7349 11.7236C19.2152 11.6576 19.6609 11.6411 23.4249 11.6411ZM23.4249 9.10425C19.6004 9.10425 19.1216 9.12076 17.6193 9.18679C16.1225 9.25283 15.0935 9.49496 14.202 9.84164C13.272 10.2048 12.4851 10.6836 11.7037 11.4705C10.9167 12.2519 10.438 13.0388 10.0748 13.9633C9.72811 14.8603 9.48598 15.8839 9.41995 17.3807C9.35391 18.8885 9.3374 19.3672 9.3374 23.1917C9.3374 27.0163 9.35391 27.495 9.41995 28.9973C9.48598 30.4941 9.72811 31.5232 10.0748 32.4147C10.438 33.3447 10.9167 34.1316 11.7037 34.913C12.4851 35.6944 13.272 36.1787 14.1965 36.5364C15.0935 36.883 16.117 37.1252 17.6138 37.1912C19.1161 37.2572 19.5949 37.2737 23.4194 37.2737C27.2439 37.2737 27.7227 37.2572 29.225 37.1912C30.7218 37.1252 31.7508 36.883 32.6423 36.5364C33.5668 36.1787 34.3537 35.6944 35.1351 34.913C35.9166 34.1316 36.4008 33.3447 36.7585 32.4202C37.1052 31.5232 37.3473 30.4996 37.4134 29.0028C37.4794 27.5005 37.4959 27.0218 37.4959 23.1973C37.4959 19.3727 37.4794 18.894 37.4134 17.3917C37.3473 15.8949 37.1052 14.8658 36.7585 13.9743C36.4118 13.0388 35.9331 12.2519 35.1461 11.4705C34.3647 10.6891 33.5778 10.2048 32.6533 9.84714C31.7563 9.50046 30.7328 9.25833 29.236 9.19229C27.7282 9.12076 27.2494 9.10425 23.4249 9.10425Z" fill="#333333"/>
<path d="M23.4248 15.9553C19.4297 15.9553 16.1885 19.1965 16.1885 23.1917C16.1885 27.1868 19.4297 30.428 23.4248 30.428C27.42 30.428 30.6612 27.1868 30.6612 23.1917C30.6612 19.1965 27.42 15.9553 23.4248 15.9553ZM23.4248 27.8857C20.8329 27.8857 18.7308 25.7836 18.7308 23.1917C18.7308 20.5998 20.8329 18.4977 23.4248 18.4977C26.0167 18.4977 28.1188 20.5998 28.1188 23.1917C28.1188 25.7836 26.0167 27.8857 23.4248 27.8857Z" fill="#333333"/>
<path d="M32.6366 15.6691C32.6366 16.6046 31.8772 17.3585 30.9472 17.3585C30.0117 17.3585 29.2578 16.5991 29.2578 15.6691C29.2578 14.7336 30.0172 13.9797 30.9472 13.9797C31.8772 13.9797 32.6366 14.7391 32.6366 15.6691Z" fill="#333333"/>
</g>
<defs>
<clipPath id="clip0_12_336">
<rect width="28.175" height="28.175" fill="white" transform="translate(9.3374 9.10425)"/>
</clipPath>
</defs>
</svg>
