<svg width="46" height="46" viewBox="0 0 46 46" fill="none" xmlns="http://www.w3.org/2000/svg">
<rect x="0.233398" y="0.383301" width="45.6167" height="45.6167" rx="3.35417" fill="#EFEFEF"/>
<path d="M10.0433 36.6082H15.6198V18.6753H10.0433V36.6082Z" fill="#333333"/>
<path d="M9.5957 13.0034C9.5957 14.7864 11.0412 16.2319 12.8316 16.2319C14.6146 16.2319 16.0601 14.7791 16.0601 13.0034C16.0601 11.2204 14.6146 9.7749 12.8316 9.7749C11.0412 9.7749 9.5957 11.2204 9.5957 13.0034Z" fill="#333333"/>
<path d="M30.9186 36.6082H36.4877V26.7686C36.4877 21.9405 35.4458 18.2277 29.8033 18.2277C27.0957 18.2277 25.276 19.7173 24.5349 21.1261H24.4615V18.6753H19.1198V36.6082H24.6817V27.7445C24.6817 25.4038 25.1219 23.1365 28.0202 23.1365C30.8819 23.1365 30.9186 25.8147 30.9186 27.8913V36.6082Z" fill="#333333"/>
</svg>
